<?xml version="1.0" encoding="utf-8"?>
<!-- Generator: Adobe Illustrator 26.0.3, SVG Export Plug-In . SVG Version: 6.00 Build 0)  -->
<svg version="1.1" id="Layer_1" xmlns="http://www.w3.org/2000/svg" xmlns:xlink="http://www.w3.org/1999/xlink" x="0px" y="0px"
	 viewBox="0 0 762.8 1147.2" style="enable-background:new 0 0 762.8 1147.2;" xml:space="preserve">
<style type="text/css">
	.st0{fill:#F8EFE8;}
	.st1{fill:#2A2623;}
	.st2{fill:url(#SVGID_1_);}
	.st3{fill:url(#SVGID_00000158025475868466309320000003198162506781628600_);}
	.st4{fill:#C9AC59;stroke:#2D2824;stroke-miterlimit:10;}
	.st5{fill:url(#SVGID_00000075858459504546965180000002685735937842627507_);}
	.st6{fill:url(#SVGID_00000011747156221397654340000000936021960416568218_);}
	.st7{fill:#998F56;stroke:#353329;stroke-miterlimit:10;}
	.st8{fill:url(#SVGID_00000013174266418560859690000005561266889775774114_);}
	.st9{fill:url(#SVGID_00000030459695290327801230000004698948286380983432_);}
	.st10{fill:none;stroke:#2A2623;stroke-width:11;stroke-miterlimit:10;}
	.st11{fill:url(#SVGID_00000127043181907939810320000004144898878630743969_);}
	.st12{fill:url(#SVGID_00000044167640952835131370000017686057517602730392_);}
	.st13{fill:url(#SVGID_00000171714925449240857670000018239821290628848012_);}
	.st14{opacity:0.2;}
	.st15{opacity:0.63;}
</style>
<g>
	<g>
		<path class="st0" d="M716.9,639.2c0,46.1-46.8,51.5-62.6,52.1h-5.1v0h-102v166.6H443.8V691.3H315.7l-70.4-69.7V474.1H132.6V282.3
			c0,0,100.9,0,101.5,0c0,0-3.4-67.7,52.1-67.7c55.5,0,52.1,67.7,52.1,67.7h105.5c0,0-3.4-67.7,52.1-67.7
			c38.5,0,48.7,32.6,51.2,52.6v15.1h102v99h4.9c15.5,0.5,62.8,5.7,62.8,52.1c0,55.5-67.7,52.1-67.7,52.1v101.6
			C649.2,587.1,716.9,583.7,716.9,639.2z"/>
		<linearGradient id="SVGID_1_" gradientUnits="userSpaceOnUse" x1="216.3932" y1="720.8931" x2="281.888" y2="655.3983">
			<stop  offset="0.1074" style="stop-color:#FFFFFF;stop-opacity:0"/>
			<stop  offset="0.4764" style="stop-color:#FEFCFA;stop-opacity:0.4134"/>
			<stop  offset="0.8862" style="stop-color:#FAF3ED;stop-opacity:0.8725"/>
			<stop  offset="1" style="stop-color:#F8EFE8"/>
		</linearGradient>
		<polygon class="st2" points="315.9,691.3 315.9,717.1 219.2,717.4 219.9,621.6 245.5,621.6 		"/>
		
			<linearGradient id="SVGID_00000070106480861282637290000007878128805959924662_" gradientUnits="userSpaceOnUse" x1="495.2264" y1="937.4244" x2="495.2264" y2="856.499">
			<stop  offset="1.704893e-07" style="stop-color:#FFFFFF;stop-opacity:0"/>
			<stop  offset="9.146164e-02" style="stop-color:#FEFDFD;stop-opacity:9.146148e-02"/>
			<stop  offset="1" style="stop-color:#F8EFE8"/>
		</linearGradient>
		
			<rect x="449" y="856.5" style="fill:url(#SVGID_00000070106480861282637290000007878128805959924662_);" width="92.4" height="80.9"/>
		
			<linearGradient id="SVGID_00000070087456359807904750000015892683562201769654_" gradientUnits="userSpaceOnUse" x1="68.3022" y1="427.5111" x2="132.6436" y2="427.5111">
			<stop  offset="1.704893e-07" style="stop-color:#FFFFFF;stop-opacity:0"/>
			<stop  offset="9.146164e-02" style="stop-color:#FEFDFD;stop-opacity:9.146148e-02"/>
			<stop  offset="1" style="stop-color:#F8EFE8"/>
		</linearGradient>
		
			<rect x="68.3" y="386.7" style="fill:url(#SVGID_00000070087456359807904750000015892683562201769654_);" width="64.3" height="81.7"/>
	</g>
	<g>
		<g class="st14">
			<path class="st1" d="M651.7,863.4H547.2v-11h93.5c1.7,0,3-1.3,3-3V691.3l11,0v169.2C654.7,862.1,653.4,863.4,651.7,863.4z"/>
		</g>
		<g>
			<path class="st1" d="M110.8,479.6h126c1.7,0,3,1.3,3,3v124.7c0,1.7-1.3,3-3,3h-14.6c-1.7,0-3,1.3-3,3v5c0,1.7,1.3,3,3,3h25.6
				c1.7,0,3-1.3,3-3V471.6c0-1.7-1.3-3-3-3h-137c-1.7,0-3,1.3-3,3v5C107.8,478.2,109.2,479.6,110.8,479.6z"/>
			<path class="st1" d="M318.3,717.4h5c1.7,0,3-1.3,3-3v-14.6c0-1.7,1.3-3,3-3h106c1.7,0,3,1.3,3,3v170.8c0,1.7,1.3,3,3,3h5
				c1.7,0,3-1.3,3-3V688.8c0-1.7-1.3-3-3-3h-128c-1.7,0-3,1.3-3,3v25.6C315.3,716.1,316.7,717.4,318.3,717.4z"/>
			<path class="st1" d="M654.7,578.7l0-84.9c0-1.6,1.2-2.9,2.8-3c12.1-0.7,34.2-4.1,49.4-18.5c10.3-9.8,15.5-22.9,15.5-38.9
				c0-21.8-9.9-38.4-28.6-48.1c-12.9-6.7-27.3-8.7-36.3-9.3c-1.6-0.1-2.8-1.4-2.8-3v-93.2c0-1.7-1.3-3-3-3l-95.3,0
				c-1.6,0-2.9-1.2-3-2.8c-0.1-2.2-0.4-4.7-0.7-7.5c-1.3-10-4.6-24.5-13.1-36.3c-10.1-14-24.7-21.1-43.6-21.1
				c-16,0-29.1,5.2-38.9,15.5c-14.4,15.1-17.8,37.3-18.5,49.4c-0.1,1.6-1.4,2.8-3,2.8h-88.8c-1.6,0-2.9-1.2-3-2.8
				c-0.7-12.1-4.1-34.2-18.5-49.4c-9.8-10.3-22.9-15.5-38.9-15.5c-16,0-29.1,5.2-38.9,15.5c-14.4,15.1-17.8,37.3-18.5,49.4
				c-0.1,1.6-1.4,2.8-3,2.8l-95.7,0c-1.7,0-3,1.3-3,3v93c0,1.7-1.3,3-3,3h-13.3c-1.7,0-3,1.3-3,3v5c0,1.7,1.3,3,3,3h131.5
				c1.7,0,3-1.3,3-3v-5c0-1.7-1.3-3-3-3H141.1c-1.7,0-3-1.3-3-3v-82c0-1.7,1.3-3,3-3l95.7,0c1.7,0,3.1-1.4,3-3.1l-0.1-2.6
				c0-0.3-1.3-32.1,15.7-49.9c7.6-8,18-12.1,30.9-12.1c12.9,0,23.3,4.1,30.9,12.1c17,17.8,15.7,49.6,15.7,49.9l0,99.3l0,2.5
				c0,1.6,1.4,3,3,3H446c1.7,0,3-1.3,3-3v-5c0-1.7-1.3-3-3-3h-99.1c-1.7,0-3-1.3-3-3v-82c0-1.7,1.3-3,3-3h99.6c1.7,0,3.1-1.4,3-3.1
				l-0.1-2.6c0-0.3-1.4-32,15.6-49.8c7.6-8,18.1-12.1,31-12.1c32.7,0,43,26,45.8,47.8c1.1,8.1,0.8,14.1,0.8,14.1l0,96.3
				c0,1.7,1.3,3,3,3h5c1.7,0,3-1.3,3-3v-87.5c0-1.7,1.3-3,3-3h84.2c1.7,0,3,1.3,3,3v93c0,1.7,1.3,3,3,3h2.5l0.3,0
				c0.2,0,1.8-0.1,4.4,0c17.3,0.5,57.5,6.1,57.5,46.6c0,12.9-4.1,23.3-12.1,30.9c-17.8,17-49.6,15.7-49.9,15.7l-103.9,0
				c-1.7,0-3,1.3-3,3v106.1c0,1.7,1.3,3,3,3h5c1.7,0,3-1.3,3-3V494c0-1.7,1.3-3,3-3h84.1c1.7,0,3,1.3,3,3v93.1l0,2.6
				c0,1.7,1.4,3.1,3.1,3l2.6-0.1c0.3,0,32.1-1.3,49.9,15.7c8,7.6,12.1,18,12.1,30.9c0,40.3-40,46-57.2,46.6c-2.9,0.1-4.7,0-4.7,0
				l-103.9,0c-1.7,0-3,1.3-3,3v181.8c0,1.7,1.3,3,3,3h5c1.7,0,3-1.3,3-3V699.8c0-1.7,1.3-3,3-3h92.5c0.6,0,2.5,0.1,5.5,0
				c15.9-0.5,67.9-6.3,67.9-57.6c0-16-5.2-29.1-15.5-38.9c-15.1-14.4-37.3-17.8-49.4-18.5C655.9,581.6,654.7,580.3,654.7,578.7z"/>
		</g>
		<g class="st14">
			<path class="st1" d="M443.8,863.4h-96.8c-1.7,0-3-1.3-3-3v-5c0-1.7,1.3-3,3-3h96.8V863.4z"/>
		</g>
		<path class="st7" d="M449.3,889l0,18.5c0,1.7-1.3,3-3,3h-5c-1.7,0-3-1.3-3-3l0-18.5c0-1.7,1.3-3,3-3h5
			C448,886,449.3,887.4,449.3,889z"/>
		<path class="st1" d="M449.3,925.5v9.6c0,1.7-1.3,3-3,3h-5c-1.7,0-3-1.3-3-3v-9.6c0-1.7,1.3-3,3-3h5
			C448,922.5,449.3,923.9,449.3,925.5z"/>
		<path class="st7" d="M553.6,889v18.5c0,1.7-1.3,3-3,3h-5c-1.7,0-3-1.3-3-3V889c0-1.7,1.3-3,3-3h5C552.3,886,553.6,887.4,553.6,889
			z"/>
		<path class="st1" d="M553.6,925.5v9.6c0,1.7-1.3,3-3,3h-5c-1.7,0-3-1.3-3-3v-9.6c0-1.7,1.3-3,3-3h5
			C552.3,922.5,553.6,923.9,553.6,925.5z"/>
		<path class="st7" d="M89.5,386.8H71c-1.7,0-3-1.3-3-3v-5c0-1.7,1.3-3,3-3h18.5c1.7,0,3,1.3,3,3v5
			C92.5,385.5,91.2,386.8,89.5,386.8z"/>
		<path class="st1" d="M53,386.8h-9.6c-1.7,0-3-1.3-3-3l0-5c0-1.7,1.3-3,3-3H53c1.7,0,3,1.3,3,3l0,5C56,385.5,54.6,386.8,53,386.8z"
			/>
		<path class="st7" d="M89.5,479.6H71c-1.7,0-3-1.3-3-3v-5c0-1.7,1.3-3,3-3h18.5c1.7,0,3,1.3,3,3v5
			C92.5,478.2,91.2,479.6,89.5,479.6z"/>
		<path class="st1" d="M53,479.6h-9.6c-1.7,0-3-1.3-3-3l0-5c0-1.7,1.3-3,3-3H53c1.7,0,3,1.3,3,3l0,5C56,478.2,54.6,479.6,53,479.6z"
			/>
	</g>
	<g class="st15">
		<path class="st1" d="M269,641.6l-23.7-23.7c-0.6-0.6-0.6-1.5,0-2.1l0,0c0.6-0.6,1.5-0.6,2.1,0l23.7,23.7c0.6,0.6,0.6,1.5,0,2.1
			l0,0C270.6,642.2,269.6,642.2,269,641.6z"/>
	</g>
	<g class="st15">
		<path class="st1" d="M318.7,691.3L295,667.5c-0.6-0.6-0.6-1.5,0-2.1l0,0c0.6-0.6,1.5-0.6,2.1,0l23.7,23.7c0.6,0.6,0.6,1.5,0,2.1
			l0,0C320.2,691.9,319.3,691.9,318.7,691.3z"/>
	</g>
</g>
</svg>
